<?xml version="1.0" encoding="utf-8"?>
<!-- Generator: Adobe Illustrator 16.0.3, SVG Export Plug-In . SVG Version: 6.00 Build 0)  -->
<!DOCTYPE svg PUBLIC "-//W3C//DTD SVG 1.1//EN" "http://www.w3.org/Graphics/SVG/1.1/DTD/svg11.dtd">
<svg version="1.1" id="Calque_1" xmlns="http://www.w3.org/2000/svg" xmlns:xlink="http://www.w3.org/1999/xlink" x="0px" y="0px"
	 width="141.73px" height="141.73px" viewBox="0 0 141.73 141.73" enable-background="new 0 0 141.73 141.73" xml:space="preserve">
<path d="M68.104,73.313c0,6.124-3.167,11.089-7.073,11.089c-3.906,0-7.072-4.965-7.072-11.089s3.167-11.089,7.072-11.089
	c2.93,0,5.443,2.792,6.517,6.772C67.906,70.323,68.104,71.782,68.104,73.313z"/>
<path fill="none" stroke="#000000" stroke-miterlimit="10" d="M57.222,74.068c0-5.141,3.546-9.307,7.921-9.307
	c4.384,0,9.891,0.976,12.572,7.92"/>
<path fill="none" stroke="#000000" stroke-miterlimit="10" d="M57.213,79.48c0-5.141,3.546-9.307,7.921-9.307
	c4.384,0,9.893,0.976,12.573,7.92"/>
<path fill="none" stroke="#000000" stroke-miterlimit="10" d="M59.391,78.695c0-5.142,2.878-3.918,6.428-3.918
	c3.181,0,7.79,0.221,10.202,7.92"/>
<path fill="none" stroke="#000000" stroke-miterlimit="10" d="M57.065,81.823c0-5.142,2.878-3.917,6.428-3.917
	c3.181,0,7.79,0.221,10.202,7.92"/>
<path fill="none" stroke="#000000" stroke-miterlimit="10" d="M64.63,74.941c0-5.14-3.546-9.307-7.921-9.307
	c-4.384,0-9.891,0.976-12.572,7.92"/>
<path fill="none" stroke="#000000" stroke-miterlimit="10" d="M64.639,80.354c0-5.14-3.546-9.306-7.921-9.306
	c-4.384,0-9.893,0.976-12.573,7.92"/>
<path fill="none" stroke="#000000" stroke-miterlimit="10" d="M62.461,79.568c0-5.141-2.878-3.918-6.428-3.918
	c-3.181,0-7.79,0.221-10.202,7.92"/>
<path fill="none" stroke="#000000" stroke-miterlimit="10" d="M62.25,81.125c0-5.141-0.341-2.346-3.891-2.346
	c-3.181,0-7.79,0.221-10.202,7.92"/>
<ellipse cx="60.989" cy="60.33" rx="4.06" ry="3.96"/>
<ellipse fill="#F9B233" cx="59.334" cy="58.125" rx="0.565" ry="0.584"/>
<ellipse fill="#F9B233" cx="62.375" cy="58.083" rx="0.565" ry="0.584"/>
</svg>
