<?xml version="1.0" encoding="utf-8"?>
<!-- Generator: Adobe Illustrator 16.0.3, SVG Export Plug-In . SVG Version: 6.00 Build 0)  -->
<!DOCTYPE svg PUBLIC "-//W3C//DTD SVG 1.1//EN" "http://www.w3.org/Graphics/SVG/1.1/DTD/svg11.dtd">
<svg version="1.1" id="Calque_1" xmlns="http://www.w3.org/2000/svg" xmlns:xlink="http://www.w3.org/1999/xlink" x="0px" y="0px"
	 width="28.35px" height="28.35px" viewBox="0 0 28.35 28.35" enable-background="new 0 0 28.35 28.35" xml:space="preserve">
<g>
	<g>
		<g enable-background="new    ">
			<g enable-background="new    ">
				<defs>
					<path id="SVGID_1_" enable-background="new    " d="M24.216,10.144l-0.144,8.024c-0.05,2.726-1.792,5.331-4.82,6.68
						c-4.455,1.983-10.007,0.509-12.399-3.295C6.09,20.34,5.74,19.036,5.763,17.759l0.144-8.025
						c-0.022,1.277,0.327,2.582,1.089,3.795c2.392,3.803,7.944,5.278,12.4,3.293C22.425,15.475,24.167,12.869,24.216,10.144z"/>
				</defs>
				<clipPath id="SVGID_2_">
					<use xlink:href="#SVGID_1_"  overflow="visible"/>
				</clipPath>
				<g clip-path="url(#SVGID_2_)" enable-background="new    ">
					<path fill="#891313" d="M24.216,10.144l-0.144,8.024c-0.004,0.219-0.02,0.438-0.045,0.654l0.145-8.025
						C24.197,10.581,24.212,10.362,24.216,10.144"/>
					<path fill="#8B1314" d="M24.172,10.797l-0.145,8.025c-0.202,1.712-1.072,3.338-2.506,4.59l0.145-8.024
						C23.1,14.136,23.97,12.509,24.172,10.797"/>
					<path fill="#891313" d="M21.666,15.388l-0.145,8.024c-0.571,0.498-1.232,0.938-1.976,1.299l0.144-8.024
						C20.434,16.325,21.095,15.886,21.666,15.388"/>
					<path fill="#861312" d="M19.689,16.687l-0.144,8.024c-0.097,0.047-0.194,0.092-0.294,0.137
						c-0.522,0.232-1.061,0.418-1.607,0.557l0.145-8.024c0.546-0.139,1.084-0.324,1.607-0.558
						C19.495,16.778,19.594,16.733,19.689,16.687"/>
					<path fill="#831211" d="M17.789,17.38l-0.145,8.024c-0.701,0.18-1.417,0.283-2.131,0.314l0.144-8.024
						C16.372,17.662,17.087,17.56,17.789,17.38"/>
					<path fill="#801211" d="M15.657,17.694l-0.144,8.024c-3.468,0.154-6.911-1.382-8.661-4.166
						C6.09,20.34,5.74,19.036,5.763,17.759l0.144-8.025c-0.022,1.277,0.327,2.582,1.089,3.795
						C8.747,16.313,12.19,17.848,15.657,17.694"/>
				</g>
			</g>
			<g>
				<path fill="#B5161F" d="M10.735,3.05c4.448-1.98,10-0.506,12.391,3.297c2.393,3.803,0.718,8.496-3.729,10.475
					c-4.456,1.984-10.008,0.51-12.4-3.293C4.605,9.725,6.279,5.033,10.735,3.05z"/>
			</g>
		</g>
	</g>
</g>
</svg>
