<?xml version="1.0" encoding="utf-8"?>
<!-- Generator: Adobe Illustrator 16.0.0, SVG Export Plug-In . SVG Version: 6.00 Build 0)  -->
<!DOCTYPE svg PUBLIC "-//W3C//DTD SVG 1.1//EN" "http://www.w3.org/Graphics/SVG/1.1/DTD/svg11.dtd">
<svg version="1.1" id="Calque_1" xmlns="http://www.w3.org/2000/svg" xmlns:xlink="http://www.w3.org/1999/xlink" x="0px" y="0px"
	 width="28.35px" height="28.35px" viewBox="0 0 28.35 28.35" enable-background="new 0 0 28.35 28.35" xml:space="preserve">
<symbol  id="Flèche_26" viewBox="-22.86 -13.14 45.72 26.28">
	<polygon fill="none" points="-22.86,-13.14 22.86,-13.14 22.86,13.14 -22.86,13.14 	"/>
	<g>
		<polygon points="-22.86,-6.339 0.069,-6.339 0.069,-13.14 22.86,0.001 0.069,13.14 0.069,6.339 -22.86,6.339 		"/>
	</g>
</symbol>
<g>
	<g>
		<g enable-background="new    ">
			<g>
				<rect x="2.138" y="3.137" fill="#7F7F7F" width="24.075" height="1.745"/>
			</g>
			<g>
				<rect x="2.138" y="22.557" fill="#4D4D4D" width="24.075" height="1.744"/>
			</g>
			<g>
				<rect x="2.138" y="3.137" fill="#4D4D4D" width="24.075" height="19.42"/>
			</g>
			<g>
				<rect x="1.13" y="23.555" fill="#7F7F7F" width="26.091" height="1.745"/>
			</g>
			<g>
				<path fill="#7F7F7F" d="M1.13,2.139h26.091v21.416H1.13V2.139z M26.213,22.557V3.137H2.138v19.42H26.213"/>
			</g>
		</g>
	</g>
</g>
<use xlink:href="#Flèche_26"  width="45.72" height="26.28" x="-22.86" y="-13.14" transform="matrix(0.3236 0 0 -0.3236 14.918 10.8242)" overflow="visible"/>
</svg>
