<?xml version="1.0" encoding="utf-8"?>
<!-- Generator: Adobe Illustrator 16.0.3, SVG Export Plug-In . SVG Version: 6.00 Build 0)  -->
<!DOCTYPE svg PUBLIC "-//W3C//DTD SVG 1.1//EN" "http://www.w3.org/Graphics/SVG/1.1/DTD/svg11.dtd">
<svg version="1.1" id="Calque_1" xmlns="http://www.w3.org/2000/svg" xmlns:xlink="http://www.w3.org/1999/xlink" x="0px" y="0px"
	 width="141.73px" height="141.73px" viewBox="0 0 141.73 141.73" enable-background="new 0 0 141.73 141.73" xml:space="preserve">
<polygon stroke="#000000" stroke-width="0.5" stroke-miterlimit="10" points="63.493,62.879 66.973,61.854 70.043,62.879 
	75.773,61.854 83.141,65.947 93.579,77.408 99.924,79.252 107.185,72.293 106.475,65.744 103.609,62.879 99.515,64.719 
	98.409,71.48 95.422,66.166 98.588,61.145 102.994,60.217 108.111,62.264 110.977,67.381 110.977,74.135 104.224,80.889 
	96.241,80.889 80.768,80.889 72.089,75.363 63.493,79.865 44.867,80.889 35.657,78.842 32.178,68.813 33.815,62.879 40.57,60.217 
	44.458,60.217 46.613,63.695 47.118,66.152 45.999,69.625 44.663,65.539 42.82,62.879 39.955,63.082 40.16,67.176 40.365,71.883 
	43.23,72.906 47.528,73.93 51.418,73.316 55.306,69.018 59.809,64.311 "/>
</svg>
