<?xml version="1.0" encoding="utf-8"?>
<!-- Generator: Adobe Illustrator 16.0.0, SVG Export Plug-In . SVG Version: 6.00 Build 0)  -->
<!DOCTYPE svg PUBLIC "-//W3C//DTD SVG 1.1//EN" "http://www.w3.org/Graphics/SVG/1.1/DTD/svg11.dtd">
<svg version="1.1" id="Calque_1" xmlns="http://www.w3.org/2000/svg" xmlns:xlink="http://www.w3.org/1999/xlink" x="0px" y="0px"
	 width="141.73px" height="141.73px" viewBox="0 0 141.73 141.73" enable-background="new 0 0 141.73 141.73" xml:space="preserve">
<path fill="#936037" d="M89.512,73.988h36.547c0,0,0.21,10.658-11.903,15.467c-12.114,4.81-85.202,1.119-85.202,1.119
	S16.217,86.32,15.171,73.988H50.88l5.015-28.634c0,0,16.286-24.185,31.111,1.35L89.512,73.988z"/>
<polygon fill="#95C11F" points="53.121,74.114 50.679,74.114 52.012,67.503 53.121,67.503 "/>
<rect x="54.955" y="67.503" fill="#008D36" width="1.833" height="6.611"/>
<rect x="56.788" y="67.503" fill="#006633" width="1.833" height="6.612"/>
<rect x="58.622" y="67.503" fill="#2FAC66" width="1.833" height="6.612"/>
<rect x="60.455" y="67.503" fill="#009640" width="1.833" height="6.612"/>
<rect x="53.121" y="67.503" fill="#3AAA35" width="1.833" height="6.611"/>
<rect x="62.289" y="67.502" fill="#36A9E1" width="1.834" height="6.612"/>
<rect x="83.874" y="67.502" fill="#F39200" width="1.834" height="6.612"/>
<rect x="64.123" y="67.502" fill="#1D71B8" width="1.834" height="6.612"/>
<rect x="65.957" y="67.502" fill="#2D2E83" width="1.834" height="6.612"/>
<rect x="67.791" y="67.502" fill="#662483" width="1.834" height="6.612"/>
<rect x="69.448" y="67.502" fill="#951B81" width="1.834" height="6.612"/>
<rect x="71.282" y="67.503" fill="#A3195B" width="1.834" height="6.612"/>
<rect x="73.116" y="67.502" fill="#D60B52" width="1.834" height="6.612"/>
<rect x="74.95" y="67.502" fill="#E71D73" width="1.834" height="6.612"/>
<rect x="76.784" y="67.502" fill="#E6007E" width="1.834" height="6.612"/>
<rect x="78.372" y="67.559" fill="#BE1622" width="1.834" height="6.613"/>
<rect x="80.206" y="67.502" fill="#E6332A" width="1.834" height="6.612"/>
<rect x="82.04" y="67.502" fill="#E94E1B" width="1.834" height="6.612"/>
<rect x="85.702" y="67.503" fill="#F9B233" width="1.834" height="6.612"/>
<polygon fill="#FCEA10" points="90.004,74.057 87.534,74.114 87.534,67.502 88.858,67.502 "/>
<rect x="23.086" y="73.917" fill="#008D36" width="5.561" height="6.611"/>
<rect x="28.646" y="73.918" fill="#006633" width="5.559" height="6.611"/>
<rect x="34.205" y="73.917" fill="#2FAC66" width="5.558" height="6.612"/>
<rect x="39.762" y="73.918" fill="#009640" width="5.561" height="6.611"/>
<rect x="17.527" y="73.918" fill="#3AAA35" width="5.559" height="6.61"/>
<rect x="45.323" y="73.916" fill="#36A9E1" width="5.561" height="6.612"/>
<rect x="110.77" y="73.916" fill="#F39200" width="5.562" height="6.612"/>
<rect x="50.884" y="73.916" fill="#1D71B8" width="5.561" height="6.612"/>
<rect x="56.445" y="73.916" fill="#2D2E83" width="5.561" height="6.612"/>
<rect x="62.006" y="73.916" fill="#662483" width="5.561" height="6.612"/>
<rect x="67.031" y="73.916" fill="#951B81" width="5.56" height="6.612"/>
<rect x="72.591" y="73.917" fill="#A3195B" width="5.562" height="6.612"/>
<rect x="78.152" y="73.916" fill="#D60B52" width="5.561" height="6.612"/>
<rect x="83.713" y="73.916" fill="#E71D73" width="5.561" height="6.612"/>
<rect x="89.273" y="73.916" fill="#E6007E" width="5.561" height="6.612"/>
<rect x="94.089" y="73.972" fill="#BE1622" width="5.561" height="6.613"/>
<rect x="99.649" y="73.916" fill="#E6332A" width="5.561" height="6.612"/>
<rect x="105.21" y="73.916" fill="#E94E1B" width="5.561" height="6.612"/>
<rect x="116.314" y="73.917" fill="#F9B233" width="5.56" height="6.612"/>
<path fill="#FCEA10" d="M124.092,81.252c0.013-0.024,0.027-0.048,0.04-0.071c0.052-0.105,0.154-0.332,0.339-0.762
	c2.11-4.897,1.611-6.503,1.611-6.503h-4.213v6.612l2.504-0.057C124.373,80.471,124.07,81.249,124.092,81.252z"/>
<path fill="#95C11F" d="M16.953,80.421c-2.004-4.609-1.856-6.503-1.856-6.503h2.43v6.612l-0.494-0.057
	C17.033,80.473,17.527,81.74,16.953,80.421z"/>
</svg>
