<?xml version="1.0" encoding="utf-8"?>
<!-- Generator: Adobe Illustrator 16.0.0, SVG Export Plug-In . SVG Version: 6.00 Build 0)  -->
<!DOCTYPE svg PUBLIC "-//W3C//DTD SVG 1.1//EN" "http://www.w3.org/Graphics/SVG/1.1/DTD/svg11.dtd">
<svg version="1.1" id="Calque_1" xmlns="http://www.w3.org/2000/svg" xmlns:xlink="http://www.w3.org/1999/xlink" x="0px" y="0px"
	 width="141.73px" height="141.73px" viewBox="0 0 141.73 141.73" enable-background="new 0 0 141.73 141.73" xml:space="preserve">
<g>
	<path d="M29.402,42.012l20.365,11.346c0,0,42.475,10.183,67.783-5.673l-9.892,11.49L75.368,70.231c0,0-32.292,4.653-48.874-7.273
		l-2.037-16.291L29.402,42.012z"/>
	<polygon points="92.446,64.347 82.932,84.09 82.932,91.362 96.896,72.184 96.896,67.216 101.551,66.344 114.352,98.635 
		115.807,88.745 114.352,76.525 107.951,66.344 103.061,60.712 	"/>
</g>
<path fill="#E30613" d="M25.439,54.477l19.426,6.782c0,0,47.584,6.606,70.942-11.549l-8.148,9.465L75.368,70.231
	c0,0-33.169,4.634-48.817-7.174l-0.937-6.776L25.439,54.477z"/>
</svg>
