<?xml version="1.0" encoding="utf-8"?>
<!-- Generator: Adobe Illustrator 16.0.3, SVG Export Plug-In . SVG Version: 6.00 Build 0)  -->
<!DOCTYPE svg PUBLIC "-//W3C//DTD SVG 1.1//EN" "http://www.w3.org/Graphics/SVG/1.1/DTD/svg11.dtd">
<svg version="1.1" id="Calque_1" xmlns="http://www.w3.org/2000/svg" xmlns:xlink="http://www.w3.org/1999/xlink" x="0px" y="0px"
	 width="141.73px" height="141.73px" viewBox="0 0 141.73 141.73" enable-background="new 0 0 141.73 141.73" xml:space="preserve">
<path stroke="#000000" stroke-width="0.5" stroke-miterlimit="10" d="M32.761,76.015l-5.274,6.681c0,0,5.628,21.449,18.111,0
	l3.693-11.605l1.932-21.8l2.466-11.079l7.557-1.054l5.452,4.042l6.681-4.042h7.385l2.464,10.196l1.196,17.341l2.669,15.722
	l5.453,10.019c0,0,25.842,5.101,9.846-14.771l6.684,4.752l1.583,8.963l-7.563,7.031l-15.824-2.795l-6.294-6.174l-4.045-5.345
	l-3.479-8.543l-1.13-5.138l-1.406-6.293l-0.526-4.57l-0.527-5.98l-3.342-0.174l-1.583,6.682l-5.625,23.209L48.058,92.545
	L37.863,96.41l-10.377-2.795l-2.988-10.216l3.515-5.274L32.761,76.015z"/>
</svg>
